<svg xmlns="http://www.w3.org/2000/svg" xmlns:xlink="http://www.w3.org/1999/xlink" width="32.788" height="28.139" viewBox="0 0 32.788 28.139">
  <defs>
    <filter id="Subtraction_15" x="0" y="0" width="32.788" height="28.139" filterUnits="userSpaceOnUse">
      <feOffset input="SourceAlpha"/>
      <feGaussianBlur stdDeviation="0.5" result="blur"/>
      <feFlood flood-opacity="0.2"/>
      <feComposite operator="in" in2="blur"/>
      <feComposite in="SourceGraphic"/>
    </filter>
    <linearGradient id="linear-gradient" x1="0.407" y1="0.216" x2="0.813" y2="0.895" gradientUnits="objectBoundingBox">
      <stop offset="0" stop-color="#0c0c0c"/>
      <stop offset="1" stop-color="#363636"/>
    </linearGradient>
  </defs>
  <g id="Group_31" data-name="Group 31" transform="translate(1.5 1.5)">
    <g transform="matrix(1, 0, 0, 1, -1.5, -1.5)" filter="url(#Subtraction_15)">
      <path id="Subtraction_15-2" data-name="Subtraction 15" d="M15.215,25.139,4.5,7.438l1.32.38h0A12,12,0,0,1,4.432,6.9,4.946,4.946,0,0,1,3.7,6.116L0,0H4.7a4.02,4.02,0,0,1,.659.112,4.585,4.585,0,0,1,.651.213,3.858,3.858,0,0,1,.712.384,3.731,3.731,0,0,1,.63.561,5.461,5.461,0,0,1,.472.6,5.665,5.665,0,0,1,.4.676,4.657,4.657,0,0,0,.378.368,3.353,3.353,0,0,0,.871.57,3.3,3.3,0,0,0,1.2.2c.191,0,.319-.012.32-.012h9.462a2.1,2.1,0,0,1,.436.077c.158.057.408.172.411.173l1.3-2.262a3.985,3.985,0,0,1,.3-.4,3.693,3.693,0,0,1,.793-.71,4,4,0,0,1,1-.43A4.835,4.835,0,0,1,25.206,0h4.581l-4.5,7.785h0A4.64,4.64,0,0,1,25.5,8.3a7.135,7.135,0,0,1,.322,1.381,6.912,6.912,0,0,1-.848,4.343,6.463,6.463,0,0,1-1.585,1.885,6.307,6.307,0,0,1-1.7.968,6.546,6.546,0,0,1-1.352.357,4.229,4.229,0,0,1-.552.051l-4.572,7.852Zm-3.8-16.31h0a1.348,1.348,0,0,1,.542.192,1.258,1.258,0,0,1,.331.3,1.219,1.219,0,0,1,.113.17l1.244,1.99h0a2.8,2.8,0,0,0,.339.4,1.1,1.1,0,0,0,.57.165h1.972L18.39,8.829H11.417Z" transform="translate(1.5 1.5)" fill="none"/>
    </g>
    <g id="Group_30" data-name="Group 30" transform="translate(1.196 0.619)">
      <path id="Subtraction_13" data-name="Subtraction 13" d="M2.293,22.723h0L0,18.794l1.252-2.1a1.039,1.039,0,0,1,.227-.174,1.8,1.8,0,0,1,.787-.15c.093,0,.153,0,.154,0h3.6l-3.73,6.353Zm4.335-7.384h0l-4.46-.19L10.378,1.341a2.519,2.519,0,0,1,.284-.382,2.805,2.805,0,0,1,.35-.334,2.344,2.344,0,0,1,.485-.3A5.1,5.1,0,0,1,13.307,0h2.325l-9,15.339Z" transform="translate(11.692 0)" fill="#0a9ef3"/>
      <path id="Union_7" data-name="Union 7" d="M11.4,18.4l-.008-.011c-.058-.092-1.425-2.246-1.518-2.353h0L7.584,12.207,4.751,7.587s.174.085.495.207a14.262,14.262,0,0,0,1.432.456,10.188,10.188,0,0,0,2.3.224h0c.024,0,.154.015.326.047a2.634,2.634,0,0,1,.634.2,1.5,1.5,0,0,1,.295.2,2.7,2.7,0,0,1,.249.24,3.3,3.3,0,0,1,.236.288h0L12.11,11.64a1.453,1.453,0,0,0,.3.308.979.979,0,0,0,.435.127h5.124a1.8,1.8,0,0,0,.286-.057,2.351,2.351,0,0,0,.634-.279,1.933,1.933,0,0,0,.638-.659,2.4,2.4,0,0,0,.3-1.2,2.377,2.377,0,0,0-.282-1.208,1.991,1.991,0,0,0-.64-.681,2.475,2.475,0,0,0-.644-.3,1.947,1.947,0,0,0-.293-.067H8.423a9.374,9.374,0,0,1-1.151-.145,8.888,8.888,0,0,1-1.1-.273,6.071,6.071,0,0,1-1.142-.489A5.82,5.82,0,0,1,4.043,6a8.09,8.09,0,0,1-.762-.781,7.826,7.826,0,0,1-.663-.883L0,0H2.8A4.907,4.907,0,0,1,3.417.06a4.322,4.322,0,0,1,.535.117,2.588,2.588,0,0,1,.529.212,3.029,3.029,0,0,1,.709.56,3.818,3.818,0,0,1,.4.5c.1.162.2.32.307.47a7.194,7.194,0,0,0,.462.6,4,4,0,0,0,.559.542,2.815,2.815,0,0,0,.7.377,5.8,5.8,0,0,0,.772.234,7.707,7.707,0,0,0,.881.153h9.592a5.7,5.7,0,0,1,.8.2,7.235,7.235,0,0,1,.821.316,6.784,6.784,0,0,1,.94.521A5.573,5.573,0,0,1,23.179,6.69a5.472,5.472,0,0,1,.324.657,5.834,5.834,0,0,1,.248.747,6.431,6.431,0,0,1,.157.843,7.534,7.534,0,0,1,.052.945,7.683,7.683,0,0,1-.063.944,6.572,6.572,0,0,1-.166.843,5.877,5.877,0,0,1-.254.747,5.473,5.473,0,0,1-.328.657,5.645,5.645,0,0,1-1.75,1.835,6.8,6.8,0,0,1-.932.521,7.17,7.17,0,0,1-.812.316,5.7,5.7,0,0,1-.789.2h0L13.6,16H13.51a1.512,1.512,0,0,0-.558.131,1.2,1.2,0,0,0-.4.389L11.4,18.4h0Z" fill="url(#linear-gradient)"/>
    </g>
  </g>
</svg>
