<svg xmlns="http://www.w3.org/2000/svg" width="26.796" height="26.796" viewBox="0 0 26.796 26.796">
  <path id="Icon_awesome-facebook-square" data-name="Icon awesome-facebook-square" d="M23.925,2.25H2.871A2.871,2.871,0,0,0,0,5.121V26.175a2.871,2.871,0,0,0,2.871,2.871H11.08v-9.11H7.312V15.648H11.08V12.38c0-3.717,2.213-5.771,5.6-5.771A22.829,22.829,0,0,1,20,6.9v3.649h-1.87a2.144,2.144,0,0,0-2.418,2.317v2.784H19.83l-.658,4.288H15.716v9.11h8.209A2.871,2.871,0,0,0,26.8,26.175V5.121A2.871,2.871,0,0,0,23.925,2.25Z" transform="translate(0 -2.25)" fill="#707070"/>
</svg>
