<svg xmlns="http://www.w3.org/2000/svg" width="26.796" height="26.796" viewBox="0 0 26.796 26.796">
  <path id="Icon_awesome-linkedin" data-name="Icon awesome-linkedin" d="M24.882,2.25H1.908A1.922,1.922,0,0,0,0,4.182V27.114a1.922,1.922,0,0,0,1.908,1.932H24.882A1.927,1.927,0,0,0,26.8,27.114V4.182A1.927,1.927,0,0,0,24.882,2.25ZM8.1,25.218H4.127V12.43H8.1V25.218ZM6.113,10.684a2.3,2.3,0,1,1,2.3-2.3,2.3,2.3,0,0,1-2.3,2.3ZM22.986,25.218H19.014V19c0-1.483-.03-3.391-2.064-3.391-2.07,0-2.387,1.615-2.387,3.284v6.328H10.593V12.43H14.4v1.747h.054a4.183,4.183,0,0,1,3.762-2.064c4.019,0,4.767,2.65,4.767,6.095Z" transform="translate(0 -2.25)" fill="#707070"/>
</svg>
