<svg xmlns="http://www.w3.org/2000/svg" width="26.803" height="26.797" viewBox="0 0 26.803 26.797">
  <path id="Icon_awesome-instagram" data-name="Icon awesome-instagram" d="M13.4,8.766a6.87,6.87,0,1,0,6.87,6.87A6.859,6.859,0,0,0,13.4,8.766Zm0,11.337a4.467,4.467,0,1,1,4.467-4.467A4.475,4.475,0,0,1,13.4,20.1ZM22.153,8.485a1.6,1.6,0,1,1-1.6-1.6A1.6,1.6,0,0,1,22.153,8.485Zm4.55,1.626A7.93,7.93,0,0,0,24.539,4.5a7.982,7.982,0,0,0-5.615-2.165c-2.212-.126-8.844-.126-11.056,0A7.971,7.971,0,0,0,2.253,4.49,7.956,7.956,0,0,0,.089,10.105c-.126,2.212-.126,8.844,0,11.056a7.93,7.93,0,0,0,2.165,5.615A7.993,7.993,0,0,0,7.868,28.94c2.212.126,8.844.126,11.056,0a7.93,7.93,0,0,0,5.615-2.165A7.982,7.982,0,0,0,26.7,21.161c.126-2.212.126-8.838,0-11.05ZM23.845,23.535A4.522,4.522,0,0,1,21.3,26.082c-1.764.7-5.949.538-7.9.538s-6.141.155-7.9-.538a4.522,4.522,0,0,1-2.547-2.547c-.7-1.764-.538-5.949-.538-7.9s-.155-6.141.538-7.9A4.522,4.522,0,0,1,5.5,5.19c1.764-.7,5.949-.538,7.9-.538s6.141-.155,7.9.538a4.522,4.522,0,0,1,2.547,2.547c.7,1.764.538,5.949.538,7.9S24.545,21.777,23.845,23.535Z" transform="translate(0.005 -2.238)" fill="#707070"/>
</svg>
