<svg xmlns="http://www.w3.org/2000/svg" width="51.441" height="42.53" viewBox="0 0 51.441 42.53">
  <path id="Path_7" data-name="Path 7" d="M8.647,26.807V23.348a25.755,25.755,0,0,0,12.539-8.294A18.81,18.81,0,0,0,25.628,3.223,4.03,4.03,0,0,0,25,.708a1.936,1.936,0,0,0-1.572-.786,14.942,14.942,0,0,0-3.38,1.572A6.932,6.932,0,0,1,16.9,2.2a8.079,8.079,0,0,1-5.975-2.28,8.5,8.5,0,0,1-2.28-6.289,8.717,8.717,0,0,1,2.948-6.6,10.154,10.154,0,0,1,7.193-2.751q5.188,0,9.237,4.52T32.074.786a23.485,23.485,0,0,1-5.621,15.054Q20.833,22.8,8.647,26.807Zm28.014,0V23.348A25.755,25.755,0,0,0,49.2,15.054,18.81,18.81,0,0,0,53.642,3.223,4.03,4.03,0,0,0,53.013.708a1.936,1.936,0,0,0-1.572-.786,14.942,14.942,0,0,0-3.38,1.572,6.932,6.932,0,0,1-3.145.708,8.079,8.079,0,0,1-5.975-2.28,8.5,8.5,0,0,1-2.28-6.289,8.717,8.717,0,0,1,2.948-6.6A10.154,10.154,0,0,1,46.8-15.723q5.188,0,9.237,4.52T60.088.786a23.485,23.485,0,0,1-5.621,15.054Q48.847,22.8,36.661,26.807Z" transform="translate(60.088 26.807) rotate(180)" fill="#25b2b7"/>
</svg>
