<svg xmlns="http://www.w3.org/2000/svg" xmlns:xlink="http://www.w3.org/1999/xlink" width="66" height="66" viewBox="0 0 66 66">
  <defs>
    <linearGradient id="linear-gradient" x1="0.861" x2="0.282" y2="0.948" gradientUnits="objectBoundingBox">
      <stop offset="0" stop-color="#0faf3a"/>
      <stop offset="1" stop-color="#abb103"/>
    </linearGradient>
    <filter id="Subtraction_1" x="0" y="0" width="66" height="66" filterUnits="userSpaceOnUse">
      <feOffset input="SourceAlpha"/>
      <feGaussianBlur stdDeviation="3" result="blur"/>
      <feFlood flood-opacity="0.161"/>
      <feComposite operator="in" in2="blur"/>
      <feComposite in="SourceGraphic"/>
    </filter>
  </defs>
  <g transform="matrix(1, 0, 0, 1, 0, 0)" filter="url(#Subtraction_1)">
    <path id="Subtraction_1-2" data-name="Subtraction 1" d="M24,48A24.006,24.006,0,0,1,14.658,1.886,24.006,24.006,0,0,1,33.342,46.114,23.85,23.85,0,0,1,24,48ZM18.985,18.317h0c-.042,0-.408.02-.445.727a3.034,3.034,0,0,0,.212,1.185,8.153,8.153,0,0,1,.268.99c.18.924.715.935.72.935a18.277,18.277,0,0,0,.545,2.46,9.774,9.774,0,0,0,.74,1.408,13.134,13.134,0,0,1-.1,3.2,3.4,3.4,0,0,1-1.564.721c-.344.077-.759.137-1.2.2a12.287,12.287,0,0,0-2.184.448c-2.953,1.04-3.836,2.42-4.057,3.395a.514.514,0,0,0,.1.434.524.524,0,0,0,.411.2c.06.04,6.014,4,11.942,4,5.9,0,11.876-3.959,11.936-4a.518.518,0,0,0,.507-.63c-.221-.974-1.1-2.353-4.057-3.395a12.286,12.286,0,0,0-2.184-.448c-.439-.063-.853-.123-1.2-.2a3.4,3.4,0,0,1-1.564-.721,13.686,13.686,0,0,1-.1-3.2,9.746,9.746,0,0,0,.739-1.408A18.256,18.256,0,0,0,29,22.154c.007,0,.534-.011.72-.935a8.151,8.151,0,0,1,.268-.99,3.034,3.034,0,0,0,.212-1.185c-.037-.707-.4-.727-.445-.727,0,0,0,0,0-.007a11.9,11.9,0,0,0,.437-3.321,5.04,5.04,0,0,0-1.431-3.613,5.9,5.9,0,0,0-4.384-1.683,5.973,5.973,0,0,0-4.4,1.674,4.982,4.982,0,0,0-1.425,3.623,12,12,0,0,0,.435,3.329Z" transform="translate(9 9)" fill="url(#linear-gradient)"/>
  </g>
</svg>
