<svg xmlns="http://www.w3.org/2000/svg" xmlns:xlink="http://www.w3.org/1999/xlink" width="157.481" height="40.754" viewBox="0 0 157.481 40.754">
  <defs>
    <filter id="Subtraction_15" x="0" y="0" width="47.735" height="40.754" filterUnits="userSpaceOnUse">
      <feOffset input="SourceAlpha"/>
      <feGaussianBlur stdDeviation="0.5" result="blur"/>
      <feFlood flood-opacity="0.271"/>
      <feComposite operator="in" in2="blur"/>
      <feComposite in="SourceGraphic"/>
    </filter>
    <linearGradient id="linear-gradient" x1="0.233" y1="-1.274" x2="0.729" y2="0.75" gradientUnits="objectBoundingBox">
      <stop offset="0" stop-color="#17ff74"/>
      <stop offset="1" stop-color="#0c8dff"/>
    </linearGradient>
    <linearGradient id="linear-gradient-2" x1="0.407" y1="0.216" x2="0.813" y2="0.895" gradientUnits="objectBoundingBox">
      <stop offset="0" stop-color="#0c0c0c"/>
      <stop offset="1" stop-color="#363636"/>
    </linearGradient>
    <linearGradient id="linear-gradient-3" x1="-1.911" y1="3.204" x2="1" y2="-0.132" xlink:href="#linear-gradient"/>
  </defs>
  <g id="Group_703" data-name="Group 703" transform="translate(-471.25 -77.496)">
    <g id="Group_31" data-name="Group 31" transform="translate(472.75 78.996)">
      <g transform="matrix(1, 0, 0, 1, -1.5, -1.5)" filter="url(#Subtraction_15)">
        <path id="Subtraction_15-2" data-name="Subtraction 15" d="M22.849,37.754,6.761,11.17l1.982.57,0,0a18.017,18.017,0,0,1-2.083-1.38,7.424,7.424,0,0,1-1.1-1.174L0,0H7.057a6.026,6.026,0,0,1,.99.168,6.871,6.871,0,0,1,.978.32,5.785,5.785,0,0,1,1.069.577,5.605,5.605,0,0,1,.947.842,8.216,8.216,0,0,1,.709.9,8.506,8.506,0,0,1,.6,1.015,7.011,7.011,0,0,0,.567.552,5.036,5.036,0,0,0,1.307.856,4.962,4.962,0,0,0,1.8.3c.287,0,.479-.018.48-.019h14.21a3.158,3.158,0,0,1,.654.115c.237.085.613.259.617.26l1.949-3.4a6,6,0,0,1,.455-.6A5.549,5.549,0,0,1,35.578.825,6.014,6.014,0,0,1,37.085.179,7.24,7.24,0,0,1,37.855,0h6.88L37.979,11.691h0a6.963,6.963,0,0,1,.313.776,10.715,10.715,0,0,1,.483,2.074A10.38,10.38,0,0,1,37.5,21.064,9.706,9.706,0,0,1,35.122,23.9a9.472,9.472,0,0,1-2.547,1.454,9.824,9.824,0,0,1-2.03.536,6.347,6.347,0,0,1-.829.077L22.849,37.754Zm-5.7-24.494h0a2.022,2.022,0,0,1,.814.289,1.891,1.891,0,0,1,.5.45,1.828,1.828,0,0,1,.17.255l1.868,2.988h0a4.209,4.209,0,0,0,.51.594,1.65,1.65,0,0,0,.856.248h2.962l2.8-4.825H17.146Z" transform="translate(1.5 1.5)" fill="#fff"/>
      </g>
      <g id="Group_30" data-name="Group 30" transform="translate(1.796 0.93)">
        <path id="Subtraction_13" data-name="Subtraction 13" d="M3.443,34.126h0L0,28.225l1.879-3.161A1.56,1.56,0,0,1,2.22,24.8,2.7,2.7,0,0,1,3.4,24.578c.139,0,.23.007.231.007H9.044l-5.6,9.541Zm6.51-11.089h0l-6.7-.285L15.586,2.014a3.782,3.782,0,0,1,.427-.574,4.213,4.213,0,0,1,.526-.5,3.52,3.52,0,0,1,.728-.451A7.657,7.657,0,0,1,19.985,0h3.492L9.953,23.036Z" transform="translate(17.56 0)" fill="url(#linear-gradient)"/>
        <path id="Union_7" data-name="Union 7" d="M17.114,27.627,17.1,27.61c-.087-.138-2.14-3.373-2.279-3.534h0L11.39,18.333,7.135,11.394s.262.127.743.311a21.418,21.418,0,0,0,2.151.684,15.3,15.3,0,0,0,3.46.336h0c.037,0,.232.022.49.071a3.955,3.955,0,0,1,.952.3,2.245,2.245,0,0,1,.443.3,4.051,4.051,0,0,1,.374.361,4.961,4.961,0,0,1,.354.432h0l2.084,3.291a2.182,2.182,0,0,0,.451.463,1.47,1.47,0,0,0,.653.191h7.7a2.707,2.707,0,0,0,.43-.085,3.531,3.531,0,0,0,.952-.419,2.9,2.9,0,0,0,.958-.989,3.607,3.607,0,0,0,.449-1.8,3.57,3.57,0,0,0-.423-1.815A2.99,2.99,0,0,0,28.392,12a3.717,3.717,0,0,0-.967-.452,2.923,2.923,0,0,0-.441-.1H12.65a14.078,14.078,0,0,1-1.729-.218,13.348,13.348,0,0,1-1.648-.41,9.118,9.118,0,0,1-1.715-.734,8.74,8.74,0,0,1-1.486-1.08A12.149,12.149,0,0,1,4.927,7.836a11.753,11.753,0,0,1-1-1.327L0,0H4.207a7.37,7.37,0,0,1,.926.089,6.49,6.49,0,0,1,.8.176,3.887,3.887,0,0,1,.794.319,4.549,4.549,0,0,1,1.066.841,5.735,5.735,0,0,1,.6.746c.149.243.3.481.461.706a10.8,10.8,0,0,0,.695.9,6.011,6.011,0,0,0,.84.814,4.227,4.227,0,0,0,1.051.566A8.71,8.71,0,0,0,12.6,5.5a11.574,11.574,0,0,0,1.323.23H28.33a8.568,8.568,0,0,1,1.2.3,10.864,10.864,0,0,1,1.232.475,10.189,10.189,0,0,1,1.411.782,8.37,8.37,0,0,1,2.634,2.755,8.218,8.218,0,0,1,.487.986,8.761,8.761,0,0,1,.373,1.122,9.656,9.656,0,0,1,.236,1.267,11.315,11.315,0,0,1,.077,1.419,11.538,11.538,0,0,1-.095,1.418,9.87,9.87,0,0,1-.249,1.266,8.825,8.825,0,0,1-.382,1.122,8.219,8.219,0,0,1-.492.987,8.478,8.478,0,0,1-2.629,2.756,10.219,10.219,0,0,1-1.4.782,10.767,10.767,0,0,1-1.219.475,8.555,8.555,0,0,1-1.185.3h0l-7.906.076h-.133a2.271,2.271,0,0,0-.838.2,1.8,1.8,0,0,0-.607.584l-1.73,2.822h0Z" transform="translate(0)" fill="url(#linear-gradient-2)"/>
      </g>
    </g>
    <g id="Group_28" data-name="Group 28" transform="translate(517.485 90.175)">
      <path id="Path_94" data-name="Path 94" d="M16.76-172.692,11.673-158.35H7.3L2.214-172.692H5.932l3.555,10.828,3.575-10.828Zm4.944,0v14.342H18.211v-14.342ZM32.553-158.35l-4.822-6.333v6.333H24.238v-14.342h3.494v6.292l4.781-6.292h4.106l-5.557,7.028,5.761,7.314Zm18.755,0H47.814L41.971-167.2v8.846H38.477v-14.342h3.494l5.843,8.887v-8.887h3.494Z" transform="translate(-2.214 173.558)" fill="url(#linear-gradient-3)"/>
      <path id="Path_95" data-name="Path 95" d="M25.064-174.187a3.2,3.2,0,0,1,1.982,1.213,3.556,3.556,0,0,1,.776,2.261,3.661,3.661,0,0,1-.562,2.025,3.747,3.747,0,0,1-1.624,1.367,5.919,5.919,0,0,1-2.513.493H16.974v-14.348h5.884a6.069,6.069,0,0,1,2.5.473,3.569,3.569,0,0,1,1.594,1.316,3.46,3.46,0,0,1,.541,1.912,3.283,3.283,0,0,1-.664,2.1A3.551,3.551,0,0,1,25.064-174.187Zm-5.23-1.069h2.615a2.384,2.384,0,0,0,1.573-.462,1.633,1.633,0,0,0,.552-1.326,1.664,1.664,0,0,0-.552-1.336,2.348,2.348,0,0,0-1.573-.473H19.834Zm2.881,6.085a2.438,2.438,0,0,0,1.624-.493,1.731,1.731,0,0,0,.582-1.4,1.805,1.805,0,0,0-.613-1.449,2.461,2.461,0,0,0-1.655-.524H19.834v3.865Zm12.422,2.528a5.933,5.933,0,0,1-2.942-.73,5.239,5.239,0,0,1-2.053-2.066,6.221,6.221,0,0,1-.746-3.083,6.088,6.088,0,0,1,.766-3.083,5.34,5.34,0,0,1,2.094-2.066,6.048,6.048,0,0,1,2.962-.73,6.048,6.048,0,0,1,2.962.73,5.34,5.34,0,0,1,2.094,2.066,6.088,6.088,0,0,1,.766,3.083,5.964,5.964,0,0,1-.787,3.083,5.462,5.462,0,0,1-2.125,2.066A6.148,6.148,0,0,1,35.136-166.643Zm0-2.508a2.961,2.961,0,0,0,1.461-.38,2.756,2.756,0,0,0,1.093-1.141,3.864,3.864,0,0,0,.409-1.85,3.441,3.441,0,0,0-.848-2.5,2.779,2.779,0,0,0-2.074-.874,2.713,2.713,0,0,0-2.053.874,3.493,3.493,0,0,0-.827,2.5,3.549,3.549,0,0,0,.807,2.5A2.649,2.649,0,0,0,35.136-169.151Zm13.034,2.508a5.933,5.933,0,0,1-2.942-.73,5.239,5.239,0,0,1-2.053-2.066,6.221,6.221,0,0,1-.746-3.083,6.088,6.088,0,0,1,.766-3.083,5.34,5.34,0,0,1,2.094-2.066,6.048,6.048,0,0,1,2.962-.73,6.048,6.048,0,0,1,2.962.73,5.34,5.34,0,0,1,2.094,2.066,6.088,6.088,0,0,1,.766,3.083,5.964,5.964,0,0,1-.787,3.083,5.462,5.462,0,0,1-2.125,2.066A6.148,6.148,0,0,1,48.171-166.643Zm0-2.508a2.961,2.961,0,0,0,1.461-.38,2.756,2.756,0,0,0,1.093-1.141,3.864,3.864,0,0,0,.409-1.85,3.441,3.441,0,0,0-.848-2.5,2.779,2.779,0,0,0-2.074-.874,2.713,2.713,0,0,0-2.053.874,3.493,3.493,0,0,0-.827,2.5,3.549,3.549,0,0,0,.807,2.5A2.649,2.649,0,0,0,48.171-169.151Zm14.71,2.323L59.04-171.68v4.851h-2.86V-182.04h2.86v8.654l3.8-4.831h3.718L61.573-172.5l5.026,5.674Zm9.561.185a5.937,5.937,0,0,1-2.492-.5,4.408,4.408,0,0,1-1.747-1.367,3.477,3.477,0,0,1-.7-1.912h2.881a1.581,1.581,0,0,0,.644,1.089,2.229,2.229,0,0,0,1.4.432,2.163,2.163,0,0,0,1.277-.329,1,1,0,0,0,.46-.843.889.889,0,0,0-.562-.833,10.529,10.529,0,0,0-1.788-.606,15.081,15.081,0,0,1-2.074-.637,3.6,3.6,0,0,1-1.389-1.007,2.714,2.714,0,0,1-.582-1.829,2.965,2.965,0,0,1,.541-1.727,3.639,3.639,0,0,1,1.553-1.233,5.79,5.79,0,0,1,2.38-.452,4.84,4.84,0,0,1,3.228,1.018,3.778,3.778,0,0,1,1.328,2.744H74.056a1.494,1.494,0,0,0-.562-1.079,2.079,2.079,0,0,0-1.338-.4,2.1,2.1,0,0,0-1.2.288.919.919,0,0,0-.419.8.942.942,0,0,0,.572.874,8.845,8.845,0,0,0,1.777.606,15.022,15.022,0,0,1,2.023.637,3.575,3.575,0,0,1,1.379,1.018,2.805,2.805,0,0,1,.6,1.819,3.03,3.03,0,0,1-.541,1.768,3.57,3.57,0,0,1-1.553,1.223A5.851,5.851,0,0,1,72.442-166.643Z" transform="translate(34.35 182.04)"/>
    </g>
  </g>
</svg>
